# xmcd
# 
# Track frame offsets:
#     150
#     19200
#     41550
#     57375
#     74325
#     88500
#     121425
#     142050
#     158175
# 
# Disc length: 2447
# 
# Revision: 0
# Processed by: cddbd v1.5.2PL0 Copyright (c) Steve Scherf et al.
# Submitted via: fre:ac v1.0.31
# 
DISCID=7f098d09
DTITLE=Funkasin Street Band - Vol.2
DYEAR=2018
DGENRE=Folk
TTITLE0=Discobass - Uptown funk
TTITLE1=Don't stop 'till you get enough - Bad - Billie Jean
TTITLE2=Bad Girl
TTITLE3=Giulia mon amour
TTITLE4=Lupin III
TTITLE5=Immigrant song - Black night - The beautiful people
TTITLE6=Confucius
TTITLE7=Pick up the pieges
TTITLE8=Guns of Navarone
EXTD=
EXTT0=
EXTT1=
EXTT2=
EXTT3=
EXTT4=
EXTT5=
EXTT6=
EXTT7=
EXTT8=
PLAYORDER=
